# xmcd
#
# Track frame offsets:
# 150
# 16715
# 31253
# 51538
# 67621
# 81637
# 91944
# 108657
# 121639
# 133858
# 146817
# 161642
#
# Disc length: 2361 seconds
#
#
# Revision: 1
# Processed by: cddbd v1.5.1PL2 Copyright (c) Steve Scherf et al.
# Submitted via: FreeRIP 2.944 
#
DISCID=9f09370c
DTITLE=Rocío Dúrcal - Alma Ranchera
DYEAR=2004
DGENRE=Latin
TTITLE0=Un Mundo Raro
TTITLE1=Si Dios Me Quita La Vida
TTITLE2=Cucurrucucú Paloma
TTITLE3=Fallaste Corazón
TTITLE4=Sufro Tu Ausencia
TTITLE5=Fiesta En El Corazón
TTITLE6=Amanecí En Tus Brazos
TTITLE7=Echame A Mí La Culpa
TTITLE8=La Media Vuelta
TTITLE9=Esta Tristeza Mía
TTITLE10=Te Parto El Alma
TTITLE11=Vete A Volar
EXTD=
EXTT0=
EXTT1=
EXTT2=
EXTT3=
EXTT4=
EXTT5=
EXTT6=
EXTT7=
EXTT8=
EXTT9=
EXTT10=
EXTT11=
PLAYORDER=
